<mxfile host="app.diagrams.net" modified="2022-09-14T15:51:46.424Z" agent="5.0 (Windows NT 10.0; Win64; x64) AppleWebKit/537.36 (KHTML, like Gecko) Chrome/105.0.0.0 Safari/537.36" etag="aa0iFEmKEjiAJXi03Djg" version="20.3.0" type="github">
  <diagram id="w21dSyYZy0RFculvbaCC" name="페이지-1">
    <mxGraphModel dx="1680" dy="754" grid="1" gridSize="10" guides="1" tooltips="1" connect="1" arrows="1" fold="1" page="1" pageScale="1" pageWidth="827" pageHeight="1169" math="0" shadow="0">
      <root>
        <mxCell id="0" />
        <mxCell id="1" parent="0" />
        <mxCell id="iZIgmg89OUHfvJzVLOZo-2" style="edgeStyle=orthogonalEdgeStyle;rounded=0;orthogonalLoop=1;jettySize=auto;html=1;exitX=0.5;exitY=1;exitDx=0;exitDy=0;strokeColor=#000000;" edge="1" parent="1">
          <mxGeometry relative="1" as="geometry">
            <mxPoint x="361" y="118" as="sourcePoint" />
            <mxPoint x="361" y="118" as="targetPoint" />
          </mxGeometry>
        </mxCell>
        <mxCell id="iZIgmg89OUHfvJzVLOZo-3" style="edgeStyle=orthogonalEdgeStyle;rounded=0;orthogonalLoop=1;jettySize=auto;html=1;exitX=0.5;exitY=0;exitDx=0;exitDy=0;" edge="1" parent="1" source="iZIgmg89OUHfvJzVLOZo-4">
          <mxGeometry relative="1" as="geometry">
            <mxPoint x="360.76470588235316" y="78" as="targetPoint" />
          </mxGeometry>
        </mxCell>
        <mxCell id="iZIgmg89OUHfvJzVLOZo-4" value="프로젝트 선택" style="rounded=1;whiteSpace=wrap;html=1;strokeColor=#000000;" vertex="1" parent="1">
          <mxGeometry x="301" y="78" width="120" height="60" as="geometry" />
        </mxCell>
        <mxCell id="iZIgmg89OUHfvJzVLOZo-18" value="" style="endArrow=none;dashed=1;html=1;dashPattern=1 3;strokeWidth=2;rounded=0;strokeColor=#000000;" edge="1" parent="1">
          <mxGeometry width="50" height="50" relative="1" as="geometry">
            <mxPoint x="271" y="260" as="sourcePoint" />
            <mxPoint x="271" y="150" as="targetPoint" />
          </mxGeometry>
        </mxCell>
        <mxCell id="iZIgmg89OUHfvJzVLOZo-19" value="" style="endArrow=none;dashed=1;html=1;dashPattern=1 3;strokeWidth=2;rounded=0;strokeColor=#000000;" edge="1" parent="1">
          <mxGeometry width="50" height="50" relative="1" as="geometry">
            <mxPoint x="271" y="260" as="sourcePoint" />
            <mxPoint x="451" y="260" as="targetPoint" />
          </mxGeometry>
        </mxCell>
        <mxCell id="iZIgmg89OUHfvJzVLOZo-21" value="" style="endArrow=classic;html=1;rounded=0;strokeColor=#000000;exitX=0.5;exitY=1;exitDx=0;exitDy=0;" edge="1" parent="1" source="iZIgmg89OUHfvJzVLOZo-70">
          <mxGeometry width="50" height="50" relative="1" as="geometry">
            <mxPoint x="359.40999999999985" y="353" as="sourcePoint" />
            <mxPoint x="361" y="368" as="targetPoint" />
          </mxGeometry>
        </mxCell>
        <mxCell id="iZIgmg89OUHfvJzVLOZo-22" value="카드결제&amp;nbsp;" style="rounded=1;whiteSpace=wrap;html=1;strokeColor=#000000;" vertex="1" parent="1">
          <mxGeometry x="140" y="600" width="120" height="60" as="geometry" />
        </mxCell>
        <mxCell id="iZIgmg89OUHfvJzVLOZo-23" value="" style="endArrow=none;html=1;rounded=0;strokeColor=#000000;" edge="1" parent="1">
          <mxGeometry width="50" height="50" relative="1" as="geometry">
            <mxPoint x="200" y="560" as="sourcePoint" />
            <mxPoint x="360" y="560" as="targetPoint" />
          </mxGeometry>
        </mxCell>
        <mxCell id="iZIgmg89OUHfvJzVLOZo-24" value="후원 성공 시" style="text;html=1;strokeColor=none;fillColor=none;align=center;verticalAlign=middle;whiteSpace=wrap;rounded=0;" vertex="1" parent="1">
          <mxGeometry x="206" y="530" width="140" height="30" as="geometry" />
        </mxCell>
        <mxCell id="iZIgmg89OUHfvJzVLOZo-25" value="후원 실패&amp;nbsp; 시" style="text;html=1;strokeColor=none;fillColor=none;align=center;verticalAlign=middle;whiteSpace=wrap;rounded=0;" vertex="1" parent="1">
          <mxGeometry x="328" y="680" width="156" height="30" as="geometry" />
        </mxCell>
        <mxCell id="iZIgmg89OUHfvJzVLOZo-26" value="" style="rhombus;whiteSpace=wrap;html=1;strokeColor=#000000;" vertex="1" parent="1">
          <mxGeometry x="319" y="460" width="80" height="80" as="geometry" />
        </mxCell>
        <mxCell id="iZIgmg89OUHfvJzVLOZo-27" value="" style="endArrow=none;html=1;rounded=0;strokeColor=#000000;entryX=0.5;entryY=1;entryDx=0;entryDy=0;" edge="1" parent="1" target="iZIgmg89OUHfvJzVLOZo-26">
          <mxGeometry width="50" height="50" relative="1" as="geometry">
            <mxPoint x="359" y="560" as="sourcePoint" />
            <mxPoint x="500" y="710" as="targetPoint" />
          </mxGeometry>
        </mxCell>
        <mxCell id="iZIgmg89OUHfvJzVLOZo-33" value="" style="endArrow=classic;html=1;rounded=0;strokeColor=#000000;exitX=0.5;exitY=1;exitDx=0;exitDy=0;" edge="1" parent="1" source="iZIgmg89OUHfvJzVLOZo-22">
          <mxGeometry width="50" height="50" relative="1" as="geometry">
            <mxPoint x="230.58999999999997" y="697" as="sourcePoint" />
            <mxPoint x="200" y="702" as="targetPoint" />
          </mxGeometry>
        </mxCell>
        <mxCell id="iZIgmg89OUHfvJzVLOZo-45" value="" style="ellipse;html=1;shape=endState;fillColor=#000000;strokeColor=#000000;" vertex="1" parent="1">
          <mxGeometry x="183" y="800" width="30" height="30" as="geometry" />
        </mxCell>
        <mxCell id="iZIgmg89OUHfvJzVLOZo-53" value="" style="endArrow=classic;html=1;rounded=0;strokeColor=#000000;" edge="1" parent="1">
          <mxGeometry width="50" height="50" relative="1" as="geometry">
            <mxPoint x="200" y="560" as="sourcePoint" />
            <mxPoint x="200" y="600" as="targetPoint" />
          </mxGeometry>
        </mxCell>
        <mxCell id="iZIgmg89OUHfvJzVLOZo-68" value="" style="endArrow=classic;html=1;rounded=0;strokeColor=#000000;exitX=0.5;exitY=1;exitDx=0;exitDy=0;" edge="1" parent="1">
          <mxGeometry width="50" height="50" relative="1" as="geometry">
            <mxPoint x="361" y="260" as="sourcePoint" />
            <mxPoint x="361" y="282" as="targetPoint" />
          </mxGeometry>
        </mxCell>
        <mxCell id="iZIgmg89OUHfvJzVLOZo-70" value="후원 완료&amp;nbsp;" style="rounded=1;whiteSpace=wrap;html=1;strokeColor=#000000;" vertex="1" parent="1">
          <mxGeometry x="301" y="284" width="120" height="60" as="geometry" />
        </mxCell>
        <mxCell id="iZIgmg89OUHfvJzVLOZo-73" value="배송지&lt;br&gt;입력" style="rounded=1;whiteSpace=wrap;html=1;strokeColor=#000000;" vertex="1" parent="1">
          <mxGeometry x="371" y="180" width="70" height="60" as="geometry" />
        </mxCell>
        <mxCell id="iZIgmg89OUHfvJzVLOZo-74" value="후원금&lt;br&gt;선택" style="rounded=1;whiteSpace=wrap;html=1;strokeColor=#000000;" vertex="1" parent="1">
          <mxGeometry x="280.5" y="180" width="70" height="60" as="geometry" />
        </mxCell>
        <mxCell id="iZIgmg89OUHfvJzVLOZo-76" value="" style="endArrow=none;dashed=1;html=1;dashPattern=1 3;strokeWidth=2;rounded=0;strokeColor=#000000;" edge="1" parent="1">
          <mxGeometry width="50" height="50" relative="1" as="geometry">
            <mxPoint x="447" y="260" as="sourcePoint" />
            <mxPoint x="447" y="150" as="targetPoint" />
          </mxGeometry>
        </mxCell>
        <mxCell id="iZIgmg89OUHfvJzVLOZo-77" value="" style="endArrow=none;dashed=1;html=1;dashPattern=1 3;strokeWidth=2;rounded=0;strokeColor=#000000;" edge="1" parent="1">
          <mxGeometry width="50" height="50" relative="1" as="geometry">
            <mxPoint x="270" y="151" as="sourcePoint" />
            <mxPoint x="451" y="150" as="targetPoint" />
          </mxGeometry>
        </mxCell>
        <mxCell id="iZIgmg89OUHfvJzVLOZo-84" value="" style="edgeStyle=elbowEdgeStyle;elbow=vertical;endArrow=classic;html=1;rounded=0;entryX=0.5;entryY=0;entryDx=0;entryDy=0;" edge="1" parent="1" target="iZIgmg89OUHfvJzVLOZo-74">
          <mxGeometry width="50" height="50" relative="1" as="geometry">
            <mxPoint x="361" y="138" as="sourcePoint" />
            <mxPoint x="241" y="200" as="targetPoint" />
            <Array as="points">
              <mxPoint x="301" y="160" />
            </Array>
          </mxGeometry>
        </mxCell>
        <mxCell id="iZIgmg89OUHfvJzVLOZo-85" value="" style="edgeStyle=elbowEdgeStyle;elbow=vertical;endArrow=classic;html=1;rounded=0;entryX=0.5;entryY=0;entryDx=0;entryDy=0;" edge="1" parent="1" target="iZIgmg89OUHfvJzVLOZo-73">
          <mxGeometry width="50" height="50" relative="1" as="geometry">
            <mxPoint x="360" y="140" as="sourcePoint" />
            <mxPoint x="481" y="200" as="targetPoint" />
            <Array as="points">
              <mxPoint x="421" y="160" />
            </Array>
          </mxGeometry>
        </mxCell>
        <mxCell id="iZIgmg89OUHfvJzVLOZo-88" value="후원선물 받기" style="rounded=1;whiteSpace=wrap;html=1;strokeColor=#000000;" vertex="1" parent="1">
          <mxGeometry x="138" y="702" width="120" height="60" as="geometry" />
        </mxCell>
        <mxCell id="iZIgmg89OUHfvJzVLOZo-90" value="" style="endArrow=classic;html=1;rounded=0;strokeColor=#000000;exitX=0.5;exitY=1;exitDx=0;exitDy=0;" edge="1" parent="1" source="iZIgmg89OUHfvJzVLOZo-88">
          <mxGeometry width="50" height="50" relative="1" as="geometry">
            <mxPoint x="358.5" y="778" as="sourcePoint" />
            <mxPoint x="198" y="800" as="targetPoint" />
          </mxGeometry>
        </mxCell>
        <mxCell id="iZIgmg89OUHfvJzVLOZo-91" value="후원 달성 검증" style="rounded=1;whiteSpace=wrap;html=1;strokeColor=#000000;" vertex="1" parent="1">
          <mxGeometry x="297" y="370" width="120" height="60" as="geometry" />
        </mxCell>
        <mxCell id="iZIgmg89OUHfvJzVLOZo-93" value="" style="endArrow=classic;html=1;rounded=0;strokeColor=#000000;exitX=0.5;exitY=1;exitDx=0;exitDy=0;" edge="1" parent="1">
          <mxGeometry width="50" height="50" relative="1" as="geometry">
            <mxPoint x="360" y="430" as="sourcePoint" />
            <mxPoint x="360" y="460" as="targetPoint" />
          </mxGeometry>
        </mxCell>
        <mxCell id="iZIgmg89OUHfvJzVLOZo-106" value="" style="edgeStyle=segmentEdgeStyle;endArrow=classic;html=1;rounded=0;" edge="1" parent="1">
          <mxGeometry width="50" height="50" relative="1" as="geometry">
            <mxPoint x="359" y="560" as="sourcePoint" />
            <mxPoint x="212" y="814.5" as="targetPoint" />
            <Array as="points">
              <mxPoint x="359" y="560" />
              <mxPoint x="359" y="815" />
            </Array>
          </mxGeometry>
        </mxCell>
        <mxCell id="iZIgmg89OUHfvJzVLOZo-62" value="" style="ellipse;html=1;shape=startState;fillColor=#000000;strokeColor=#000000;" vertex="1" parent="1">
          <mxGeometry x="346" y="30" width="30" height="30" as="geometry" />
        </mxCell>
        <mxCell id="iZIgmg89OUHfvJzVLOZo-108" value="" style="endArrow=classic;html=1;rounded=0;strokeColor=#000000;" edge="1" parent="1">
          <mxGeometry width="50" height="50" relative="1" as="geometry">
            <mxPoint x="361" y="50" as="sourcePoint" />
            <mxPoint x="360.5" y="78" as="targetPoint" />
          </mxGeometry>
        </mxCell>
      </root>
    </mxGraphModel>
  </diagram>
</mxfile>
